<svg xmlns="http://www.w3.org/2000/svg" viewBox="0 0 19.15 19.149">
  <defs>
    <style>
      .cls-1 {
        fill: #fff;
      }
    </style>
  </defs>
  <g id="Group_95" data-name="Group 95" transform="translate(-8075.176 70.491)">
    <path id="Path_76" data-name="Path 76" class="cls-1" d="M22.989,3.341H.749C.335,3.341,0,3.129,0,2.867V.474C0,.212.335,0,.749,0H22.991c.414,0,.749.212.749.474V2.868C23.738,3.129,23.4,3.341,22.989,3.341Z" transform="translate(8077.539 -70.491) rotate(45)"/>
    <path id="Path_77" data-name="Path 77" class="cls-1" d="M22.989,3.341H.749C.335,3.341,0,3.129,0,2.867V.474C0,.212.335,0,.749,0H22.991c.414,0,.749.212.749.474V2.868C23.738,3.129,23.4,3.341,22.989,3.341Z" transform="translate(8094.325 -68.129) rotate(135)"/>
  </g>
</svg>
