<svg xmlns="http://www.w3.org/2000/svg" xmlns:xlink="http://www.w3.org/1999/xlink" viewBox="0 0 1007.45 494.448">
  <defs>
    <style>
      .cls-1, .cls-4 {
        fill: #fafafa;
      }

      .cls-1 {
        stroke: #d1cdcd;
      }

      .cls-2 {
        fill: #fff;
      }

      .cls-3, .cls-8 {
        fill: #f8f8f8;
      }

      .cls-4 {
        stroke: #fff;
        stroke-width: 3px;
      }

      .cls-5, .cls-7, .cls-8 {
        stroke: none;
      }

      .cls-6 {
        fill: none;
      }

      .cls-7 {
        fill: #f8f5f5;
      }

      .cls-9 {
        filter: url(#Path_22);
      }
    </style>
    <filter id="Path_22" x="0" y="0" width="1007.45" height="494.448" filterUnits="userSpaceOnUse">
      <feOffset dy="1" input="SourceAlpha"/>
      <feGaussianBlur stdDeviation="3" result="blur"/>
      <feFlood flood-opacity="0.161"/>
      <feComposite operator="in" in2="blur"/>
      <feComposite in="SourceGraphic"/>
    </filter>
  </defs>
  <g id="Group_58" data-name="Group 58" transform="translate(-183.55 -1608)">
    <g id="Rectangle_35" data-name="Rectangle 35" class="cls-1" transform="translate(225.244 1648.694)">
      <rect class="cls-5" width="925.739" height="412.736"/>
      <rect class="cls-6" x="0.5" y="0.5" width="924.739" height="411.736"/>
    </g>
    <g class="cls-9" transform="matrix(1, 0, 0, 1, 183.55, 1608)">
      <g id="Path_22-2" data-name="Path 22" class="cls-2" transform="translate(9 8)">
        <path class="cls-5" d="M 988.949951171875 475.9474792480469 L 0.4999755918979645 475.9474792480469 L 0.4999755918979645 0.4999743700027466 L 988.949951171875 0.4999743700027466 L 988.949951171875 475.9474792480469 Z"/>
        <path class="cls-7" d="M 1 0.999969482421875 L 1 475.4474792480469 L 988.449951171875 475.4474792480469 L 988.449951171875 0.999969482421875 L 1 0.999969482421875 M 0 -3.0517578125e-05 L 989.449951171875 -3.0517578125e-05 L 989.449951171875 476.4474792480469 L 0 476.4474792480469 L 0 -3.0517578125e-05 Z"/>
      </g>
    </g>
    <g id="Path_23" data-name="Path 23" class="cls-3" transform="translate(225.244 1649)">
      <path class="cls-5" d="M 925.2388305664062 412.2364501953125 L 0.5000340342521667 412.2364501953125 L 0.5000340342521667 0.4999745488166809 L 925.2388305664062 0.4999745488166809 L 925.2388305664062 412.2364501953125 Z"/>
      <path class="cls-8" d="M 1.00006103515625 0.999969482421875 L 1.00006103515625 411.7364501953125 L 924.7388305664062 411.7364501953125 L 924.7388305664062 0.999969482421875 L 1.00006103515625 0.999969482421875 M 6.103515625e-05 -3.0517578125e-05 L 925.7388305664062 -3.0517578125e-05 L 925.7388305664062 412.7364501953125 L 6.103515625e-05 412.7364501953125 L 6.103515625e-05 -3.0517578125e-05 Z"/>
    </g>
    <path id="Path_21" data-name="Path 21" class="cls-4" d="M0-13.023V401.118" transform="translate(687.401 1660.523)"/>
  </g>
</svg>
