<svg xmlns="http://www.w3.org/2000/svg" width="13.493" height="12.004" viewBox="0 0 13.493 12.004"><defs><style>.a{fill:#00a694;}</style></defs><path class="a" d="M6.747,12a.791.791,0,0,1-.522-.2c-.545-.477-1.071-.925-1.534-1.32l0,0a28.534,28.534,0,0,1-3.35-3.144A5.022,5.022,0,0,1,0,4.055a4.217,4.217,0,0,1,1.07-2.88A3.628,3.628,0,0,1,3.769,0a3.394,3.394,0,0,1,2.12.732,4.337,4.337,0,0,1,.857.895A4.338,4.338,0,0,1,7.6.732,3.394,3.394,0,0,1,9.724,0a3.628,3.628,0,0,1,2.7,1.175,4.217,4.217,0,0,1,1.07,2.88,5.022,5.022,0,0,1-1.338,3.287,28.531,28.531,0,0,1-3.35,3.144c-.464.4-.991.844-1.537,1.322a.792.792,0,0,1-.522.2ZM3.769.79a2.847,2.847,0,0,0-2.118.92A3.431,3.431,0,0,0,.79,4.055,4.226,4.226,0,0,0,1.947,6.838,28.079,28.079,0,0,0,5.2,9.885l0,0c.465.4.993.846,1.542,1.326.552-.481,1.081-.931,1.547-1.329a28.086,28.086,0,0,0,3.254-3.047A4.226,4.226,0,0,0,12.7,4.055a3.431,3.431,0,0,0-.861-2.345A2.846,2.846,0,0,0,9.724.79a2.621,2.621,0,0,0-1.637.567,3.835,3.835,0,0,0-.912,1.055.5.5,0,0,1-.857,0,3.832,3.832,0,0,0-.912-1.055A2.621,2.621,0,0,0,3.769.79Zm0,0" transform="translate(0 0)"/></svg>