<svg xmlns="http://www.w3.org/2000/svg" xmlns:xlink="http://www.w3.org/1999/xlink" width="304" height="51" viewBox="0 0 304 51">
  <defs>
    <linearGradient id="linear-gradient" y1="0.048" x2="0.937" y2="1" gradientUnits="objectBoundingBox">
      <stop offset="0" stop-color="#0173b2"/>
      <stop offset="1" stop-color="#0173b2"/>
    </linearGradient>
  </defs>
  <g id="Group_5692" data-name="Group 5692" transform="translate(1265 -4369)">
    <rect id="Rectangle_2624" data-name="Rectangle 2624" width="304" height="51" rx="6" transform="translate(-1265 4369)" fill="url(#linear-gradient)"/>
    <g id="Group_5691" data-name="Group 5691" transform="translate(-1098.077 4379)">
      <path id="Path_14150" data-name="Path 14150" d="M1841.809,2.248a2.278,2.278,0,0,1,2.3-2.248h26.577A2.278,2.278,0,0,1,1873,2.248V29.137a2.277,2.277,0,0,1-2.305,2.248h-26.577a2.277,2.277,0,0,1-2.3-2.247V2.248Z" transform="translate(-1754.166)" fill="#fff"/>
      <path id="Path_14151" data-name="Path 14151" d="M.341,132.5H13.356v-4.273h-8.3v-16.3H.341Zm19.6,0V118.329H15.235V132.5Zm-2.355-16.106a2.456,2.456,0,1,0,.031-4.9,2.455,2.455,0,1,0-.062,4.9ZM22.133,132.5h4.711v-7.915A3.214,3.214,0,0,1,27,123.437a2.578,2.578,0,0,1,2.417-1.723c1.7,0,2.387,1.3,2.387,3.2V132.5h4.71v-8.126c0-4.353-2.324-6.379-5.423-6.379a4.692,4.692,0,0,0-4.277,2.388h.032v-2.055H22.133C22.195,119.658,22.133,132.5,22.133,132.5Zm21.024-20.575H38.447V132.5h4.711v-4.595l1.177-1.482,3.688,6.077h5.795l-6.2-8.8,5.423-5.985h-5.67s-3.874,5.354-4.215,5.99Z" transform="translate(0 -106.211)" fill="#fff"/>
      <path id="Path_14152" data-name="Path 14152" d="M1107.581,135.181a11.488,11.488,0,0,0,.155-1.851c0-3.663-1.86-7.383-6.756-7.383-5.237,0-7.655,4.142-7.655,7.9,0,4.646,2.944,7.548,8.088,7.548a14.646,14.646,0,0,0,5.485-.936l-.62-3.111a12.821,12.821,0,0,1-4.184.633c-2.2,0-4.121-.9-4.276-2.828l9.761.03Zm-9.792-3.187a3.075,3.075,0,0,1,2.944-2.994,2.7,2.7,0,0,1,2.634,2.994h-5.579Zm21.574-11.477v7.123h-.062a4.708,4.708,0,0,0-4-1.662c-3.626,0-6.818,2.9-6.787,7.859,0,4.6,2.882,7.588,6.477,7.588a5.328,5.328,0,0,0,4.742-2.48h.093l.187,2.147h4.183c-.062-1-.124-2.721-.124-4.414V120.517h-4.71Zm0,14.015a5.236,5.236,0,0,1-.093,1.027,2.772,2.772,0,0,1-2.757,2.207c-1.952,0-3.223-1.572-3.223-4.05,0-2.327,1.085-4.2,3.254-4.2a2.784,2.784,0,0,1,2.758,2.236,3.928,3.928,0,0,1,.062.847v1.935Z" transform="translate(-1041.168 -114.803)" fill="#fff"/>
      <path id="Path_14153" data-name="Path 14153" d="M1940.99,132.135V117.964h-4.711v14.172h4.711Zm-2.354-16.106a2.624,2.624,0,1,0-.031,0h.031Zm4.962,16.106h4.71v-7.913a3.229,3.229,0,0,1,.155-1.149,2.578,2.578,0,0,1,2.417-1.723c1.7,0,2.386,1.3,2.386,3.2v7.581h4.71V124.01c0-4.353-2.324-6.378-5.423-6.378a4.692,4.692,0,0,0-4.277,2.387h.031v-2.055h-4.71c.062,1.33,0,14.172,0,14.172Z" transform="translate(-1843.893 -105.863)" fill="#0173b2"/>
    </g>
    <text id="Follow_us_on" data-name="Follow us on" transform="translate(-1248 4401)" fill="#fff" font-size="20" font-family="ProximaNova-Bold, Proxima Nova" font-weight="700"><tspan x="0" y="0">Follow us on</tspan></text>
  </g>
</svg>
