<svg xmlns="http://www.w3.org/2000/svg" width="33.209" height="28.837" viewBox="0 0 33.209 28.837"><defs><style>.a{fill:#713708;}.b{fill:#994c0f;}.c{fill:#fe318f;}.d{fill:#fd0f7f;}.e{fill:#1bd9de;}.f{fill:#cae8f9;}.g{fill:#e1e4fb;}.h{fill:#b7e0f6;}.i{fill:#c5c9f7;}</style></defs><g transform="translate(-12.393 -13.437) rotate(22)"><path class="a" d="M232.551,319.607l-1.242,1.242a.878.878,0,0,1-1.242-1.242l1.242-1.242a.879.879,0,0,0,0-1.242l-1.142-1.142a.878.878,0,1,1,1.242-1.242l1.142,1.142A2.638,2.638,0,0,1,232.551,319.607Z" transform="translate(-194.133 -296.6)"/><path class="b" d="M166.567,358.713h0a1.757,1.757,0,0,1-2.484,0l-6.211-6.211,2.484-2.484,6.211,6.211A1.757,1.757,0,0,1,166.567,358.713Z" transform="translate(-126.286 -330.117)"/><path class="c" d="M31.536,261.753l3.851,3.851-.075,2.41-4.348,4.348a2.662,2.662,0,0,1-3.751-.025l-2.484-2.484a2.613,2.613,0,0,1,.025-3.7L29.1,261.8Z" transform="translate(0 -246.87)"/><path class="d" d="M67.011,295.4l1.938,1.938-.075,2.41L64.527,304.1a2.662,2.662,0,0,1-3.751-.025l-1.217-1.217Z" transform="translate(-33.562 -278.604)"/><g transform="translate(41.574 0)"><path class="e" d="M334.417,3.514a.878.878,0,0,1-.878-.878V.878a.878.878,0,1,1,1.756,0V2.635A.878.878,0,0,1,334.417,3.514Z" transform="translate(-333.538 0)"/><path class="e" d="M428.865,125.345h-1.757a.878.878,0,1,1,0-1.756h1.757a.878.878,0,0,1,0,1.756Z" transform="translate(-420.96 -116.561)"/><path class="e" d="M396.972,28.9a.87.87,0,0,1,0,1.242l-1.863,1.863a.878.878,0,1,1-1.242-1.242L395.73,28.9A.87.87,0,0,1,396.972,28.9Z" transform="translate(-390.19 -27.013)"/></g><path class="f" d="M122.871,49.1l8.7,8.7c.248.248.559,2.869.882,2.919L130,61.228a19.048,19.048,0,0,0-9.4,5.056l-.211.211-6.211-6.211.211-.211a18.459,18.459,0,0,0,5.018-9.441l.509-2.546Z" transform="translate(-85.074 -45.352)"/><path class="g" d="M101.41,334.767a.87.87,0,0,1,0,1.242l-1.242,1.242a.878.878,0,1,1-1.242-1.242l1.242-1.242A.87.87,0,0,1,101.41,334.767Z" transform="translate(-70.445 -315.487)"/><path class="h" d="M178.733,142.467l4.348,4.348c.248.248.559,2.869.882,2.919l-2.447.509a19.048,19.048,0,0,0-9.4,5.056l-.211.211L168.8,152.4Z" transform="translate(-136.589 -134.367)"/><path class="i" d="M105.737,339.094a.87.87,0,0,1,0,1.242l-1.242,1.242a.87.87,0,0,1-1.242,0Z" transform="translate(-74.772 -319.814)"/><path class="c" d="M217.818,13.807,229,24.987a1.762,1.762,0,0,1,0,2.484,1.025,1.025,0,0,1-.273.174,1.641,1.641,0,0,1-1.329.261,1.565,1.565,0,0,1-.882-.435l-11.18-11.18a1.8,1.8,0,0,1-.261-2.1,2.094,2.094,0,0,1,.261-.385A1.762,1.762,0,0,1,217.818,13.807Z" transform="translate(-180.021 -12.539)"/><path class="d" d="M324.21,120.62l5.59,5.59a1.762,1.762,0,0,1,0,2.484,1.025,1.025,0,0,1-.273.174,1.641,1.641,0,0,1-1.329.261,1.565,1.565,0,0,1-.882-.435l-5.59-5.59Z" transform="translate(-280.823 -113.762)"/></g></svg>