<svg xmlns="http://www.w3.org/2000/svg" width="27.876" height="24.5" viewBox="0 0 27.876 24.5"><defs><style>.a{fill:#5a5a5a;}.b{fill:#444;}.c{fill:#6e6e6e;}.d{fill:#ffd400;}.e{fill:#fdbf00;}</style></defs><g transform="translate(0 -31)"><path class="a" d="M162.433,33.45v1.633a.809.809,0,0,1-.817.817H160.8V33.45a.809.809,0,0,0-.817-.817H153.45a.809.809,0,0,0-.817.817V35.9h-.817a.809.809,0,0,1-.817-.817V33.45A2.447,2.447,0,0,1,153.45,31h6.533A2.447,2.447,0,0,1,162.433,33.45Z" transform="translate(-142.779)"/><path class="b" d="M259.267,32.633H256V31h3.267a2.447,2.447,0,0,1,2.45,2.45v1.633a.809.809,0,0,1-.817.817h-.817V33.45A.809.809,0,0,0,259.267,32.633Z" transform="translate(-242.062)"/><path class="a" d="M27.876,96.07v17.967a2.447,2.447,0,0,1-2.45,2.45H2.45A2.447,2.447,0,0,1,0,114.037V96.07A.8.8,0,0,1,.245,95.5l4.165,9.375H23.466L27.631,95.5A.8.8,0,0,1,27.876,96.07Z" transform="translate(0 -60.986)"/><path class="b" d="M269.938,96.07v17.967a2.447,2.447,0,0,1-2.45,2.45H256V104.874h9.528l4.165-9.376A.8.8,0,0,1,269.938,96.07Z" transform="translate(-242.062 -60.986)"/><path class="c" d="M31.887,91.245l-2.532,9.375a2.446,2.446,0,0,1-2.368,1.813H9.4a2.446,2.446,0,0,1-2.368-1.813L4.5,91.245A.8.8,0,0,1,5.073,91H31.315A.8.8,0,0,1,31.887,91.245Z" transform="translate(-4.256 -56.733)"/><path class="a" d="M269.693,91.245l-2.532,9.375a2.446,2.446,0,0,1-2.368,1.813H256V91h13.121A.8.8,0,0,1,269.693,91.245Z" transform="translate(-242.062 -56.733)"/><path class="d" d="M188.35,256h-6.533a.809.809,0,0,0-.817.817v3.267a.809.809,0,0,0,.817.817h6.533a.809.809,0,0,0,.817-.817v-3.267A.809.809,0,0,0,188.35,256Z" transform="translate(-171.145 -212.75)"/><path class="e" d="M260.083,256.817v3.267a.809.809,0,0,1-.817.817H256V256h3.267A.809.809,0,0,1,260.083,256.817Z" transform="translate(-242.062 -212.75)"/></g></svg>