<svg xmlns="http://www.w3.org/2000/svg" xmlns:xlink="http://www.w3.org/1999/xlink" width="248" height="42" viewBox="0 0 248 42">
  <defs>
    <linearGradient id="linear-gradient" y1="0.048" x2="0.937" y2="1" gradientUnits="objectBoundingBox">
      <stop offset="0" stop-color="#0173b2"/>
      <stop offset="1" stop-color="#0173b2"/>
    </linearGradient>
  </defs>
  <g id="Group_5692" data-name="Group 5692" transform="translate(1265 -4369)">
    <rect id="Rectangle_2624" data-name="Rectangle 2624" width="248" height="42" rx="6" transform="translate(-1265 4369)" fill="url(#linear-gradient)"/>
    <g id="Group_5691" data-name="Group 5691" transform="translate(-1128.688 4377.149)">
      <path id="Path_14150" data-name="Path 14150" d="M1841.809,1.832A1.856,1.856,0,0,1,1843.688,0h21.659a1.856,1.856,0,0,1,1.878,1.832V23.745a1.856,1.856,0,0,1-1.878,1.832h-21.659a1.856,1.856,0,0,1-1.878-1.832V1.832Z" transform="translate(-1770.662)" fill="#fff"/>
      <path id="Path_14151" data-name="Path 14151" d="M.341,128.614H10.948v-3.483H4.18V111.846H.341Zm15.977,0V117.064H12.479v11.549ZM14.4,115.488a2,2,0,1,0,.026-3.991,2,2,0,1,0-.051,3.991Zm3.7,13.126h3.839v-6.45a2.62,2.62,0,0,1,.126-.936,2.1,2.1,0,0,1,1.969-1.4c1.389,0,1.945,1.059,1.945,2.611v6.179h3.838v-6.622c0-3.548-1.894-5.2-4.42-5.2a3.824,3.824,0,0,0-3.485,1.946h.026v-1.675H18.1C18.151,118.148,18.1,128.614,18.1,128.614Zm17.134-16.768H31.4v16.768h3.839v-3.745l.959-1.208,3.006,4.953h4.722l-5.05-7.17,4.419-4.877H38.669s-3.157,4.363-3.435,4.881Z" transform="translate(-0.341 -107.189)" fill="#fff"/>
      <path id="Path_14152" data-name="Path 14152" d="M1104.943,132.468a9.359,9.359,0,0,0,.126-1.509c0-2.985-1.516-6.017-5.506-6.017-4.268,0-6.238,3.376-6.238,6.437,0,3.787,2.4,6.151,6.592,6.151a11.935,11.935,0,0,0,4.47-.763l-.505-2.535a10.448,10.448,0,0,1-3.409.516c-1.793,0-3.359-.736-3.485-2.3l7.955.024Zm-7.98-2.6a2.506,2.506,0,0,1,2.4-2.44,2.2,2.2,0,0,1,2.147,2.44h-4.546Zm17.582-9.353v5.8h-.051a3.837,3.837,0,0,0-3.257-1.355c-2.955,0-5.556,2.365-5.531,6.405,0,3.745,2.349,6.184,5.278,6.184a4.342,4.342,0,0,0,3.864-2.021h.075l.152,1.75h3.409c-.05-.813-.1-2.217-.1-3.6V120.517h-3.839Zm0,11.422a4.26,4.26,0,0,1-.076.837,2.259,2.259,0,0,1-2.247,1.8c-1.591,0-2.626-1.281-2.626-3.3,0-1.9.885-3.424,2.652-3.424a2.269,2.269,0,0,1,2.247,1.822,3.2,3.2,0,0,1,.05.69v1.577Z" transform="translate(-1051.097 -115.861)" fill="#fff"/>
      <path id="Path_14153" data-name="Path 14153" d="M1940.067,128.249V116.7h-3.839v11.549h3.839Zm-1.919-13.126a2.139,2.139,0,1,0-.025,0h.025Zm4.043,13.126h3.839V121.8a2.63,2.63,0,0,1,.126-.937,2.1,2.1,0,0,1,1.97-1.4c1.389,0,1.945,1.059,1.945,2.612v6.178h3.839v-6.622c0-3.547-1.894-5.2-4.419-5.2a3.824,3.824,0,0,0-3.485,1.946h.025V116.7h-3.839c.05,1.083,0,11.549,0,11.549Z" transform="translate(-1861.215 -106.838)" fill="#0173b2"/>
    </g>
    <text id="Follow_us_on" data-name="Follow us on" transform="translate(-1251 4395)" fill="#fff" font-size="16" font-family="ProximaNova-Regular, Proxima Nova"><tspan x="0" y="0">Follow us on</tspan></text>
  </g>
</svg>
